# xmcd
#
# Track frame offsets:
#	150
#	19964
#	39572
#	70801
#	89056
#	103579
#	122225
#	143727
#	163485
#	181262
#	192682
#	222375
#	243730
#	258632
#	279831
#	304434
#	322364
#	337439
#
# Disc length: 4790 seconds
#
# Revision: 0
# Processed by: cddbd v1.5.2PL0 Copyright (c) Steve Scherf et al.
# Submitted via: EasyCDDAExtractor 8.2.3.1
#
DISCID=3312b412
DTITLE=Various Artist - Blues-Rock Now!!! Box3 CD2
DYEAR=2007
DGENRE=Blues
TTITLE0=ROB ORLEMANS - Fuzzbox Boogie
TTITLE1=WILD T and The SPIRIT - Talk Dirty
TTITLE2=MICHAEL KATON - Need It Awful Dad
TTITLE3=AMERICAN BLUES BOX - Whiskey and Water
TTITLE4=JAY JESSE JOHNSON - Wicked Little Heartbreaker
TTITLE5=PAT TRAVERS POWER TRIO - Black Night
TTITLE6=THUNDERHAWKS - Spirit
TTITLE7=BLINDSTONE - Wasted Days
TTITLE8=CACTUS - Shine
TTITLE9=TONY C. and The TRUTH - One 4 the Road
TTITLE10=SOUTHERN GENTLEMEN - Racing Back To Mississippi
TTITLE11=THUNDER - I Love You Than Rock'n'Rol
TTITLE12=SOUL DOCTOR - Ten Seconds Of Love
TTITLE13=PHILIP SAYCE - Powerful Thing
TTITLE14=ERIC GALES - Trouble
TTITLE15=RHINO BUCKET - Even the Sun Goes Down
TTITLE16=MICHAEL POWERS - Shock
TTITLE17=FROM BEHIND - Picture
EXTD=
EXTT0=
EXTT1=
EXTT2=
EXTT3=
EXTT4=
EXTT5=
EXTT6=
EXTT7=
EXTT8=
EXTT9=
EXTT10=
EXTT11=
EXTT12=
EXTT13=
EXTT14=
EXTT15=
EXTT16=
EXTT17=
PLAYORDER=
